<mxfile host="Electron" modified="2024-09-15T14:10:41.684Z" agent="Mozilla/5.0 (Macintosh; Intel Mac OS X 10_15_7) AppleWebKit/537.36 (KHTML, like Gecko) draw.io/24.2.5 Chrome/120.0.6099.109 Electron/28.1.0 Safari/537.36" etag="mMV6ZN0GqyFiwZ0V__sx" version="24.2.5" type="device">
  <diagram name="Seite-1" id="O64vXf0VaOApVddnFwWp">
    <mxGraphModel dx="901" dy="570" grid="1" gridSize="10" guides="1" tooltips="1" connect="1" arrows="1" fold="1" page="1" pageScale="1" pageWidth="827" pageHeight="1169" math="1" shadow="0">
      <root>
        <mxCell id="0" />
        <mxCell id="1" parent="0" />
        <mxCell id="O3-EXrC-sCpuzH3_KJcA-1" value="" style="rounded=0;whiteSpace=wrap;html=1;strokeWidth=1.3;" parent="1" vertex="1">
          <mxGeometry x="90" y="50" width="180" height="110" as="geometry" />
        </mxCell>
        <mxCell id="O3-EXrC-sCpuzH3_KJcA-2" value="Balancer" style="text;html=1;align=center;verticalAlign=middle;whiteSpace=wrap;rounded=0;fontFamily=Garamond;fontStyle=1;strokeWidth=1.3;" parent="1" vertex="1">
          <mxGeometry x="90" y="53" width="70" height="30" as="geometry" />
        </mxCell>
        <mxCell id="O3-EXrC-sCpuzH3_KJcA-3" value="" style="rounded=0;whiteSpace=wrap;html=1;strokeWidth=1.3;" parent="1" vertex="1">
          <mxGeometry x="90" y="310" width="180" height="100" as="geometry" />
        </mxCell>
        <mxCell id="O3-EXrC-sCpuzH3_KJcA-4" value="Deployment Agent" style="text;html=1;align=center;verticalAlign=middle;whiteSpace=wrap;rounded=0;fontFamily=Garamond;fontStyle=1" parent="1" vertex="1">
          <mxGeometry x="90" y="310" width="120" height="30" as="geometry" />
        </mxCell>
        <mxCell id="O3-EXrC-sCpuzH3_KJcA-9" style="rounded=0;orthogonalLoop=1;jettySize=auto;html=1;entryX=0.25;entryY=0;entryDx=0;entryDy=0;startArrow=none;startFill=0;endArrow=none;endFill=0;exitX=0.5;exitY=1;exitDx=0;exitDy=0;" parent="1" source="O3-EXrC-sCpuzH3_KJcA-5" target="O3-EXrC-sCpuzH3_KJcA-3" edge="1">
          <mxGeometry relative="1" as="geometry" />
        </mxCell>
        <mxCell id="O3-EXrC-sCpuzH3_KJcA-12" style="rounded=0;orthogonalLoop=1;jettySize=auto;html=1;entryX=0.25;entryY=1;entryDx=0;entryDy=0;endArrow=none;endFill=0;exitX=0.5;exitY=0;exitDx=0;exitDy=0;" parent="1" source="O3-EXrC-sCpuzH3_KJcA-5" target="O3-EXrC-sCpuzH3_KJcA-1" edge="1">
          <mxGeometry relative="1" as="geometry" />
        </mxCell>
        <mxCell id="O3-EXrC-sCpuzH3_KJcA-5" value="&lt;i style=&quot;&quot;&gt;&lt;font face=&quot;Garamond&quot;&gt;W&lt;sub style=&quot;&quot;&gt;1&lt;/sub&gt;&lt;/font&gt;&lt;/i&gt;" style="rounded=0;whiteSpace=wrap;html=1;strokeWidth=1.3;" parent="1" vertex="1">
          <mxGeometry x="90" y="210" width="50" height="50" as="geometry" />
        </mxCell>
        <mxCell id="O3-EXrC-sCpuzH3_KJcA-11" style="rounded=0;orthogonalLoop=1;jettySize=auto;html=1;entryX=0.75;entryY=0;entryDx=0;entryDy=0;startArrow=none;startFill=0;endArrow=none;endFill=0;exitX=0.558;exitY=1.034;exitDx=0;exitDy=0;exitPerimeter=0;" parent="1" source="O3-EXrC-sCpuzH3_KJcA-6" target="O3-EXrC-sCpuzH3_KJcA-3" edge="1">
          <mxGeometry relative="1" as="geometry" />
        </mxCell>
        <mxCell id="O3-EXrC-sCpuzH3_KJcA-14" style="rounded=0;orthogonalLoop=1;jettySize=auto;html=1;entryX=0.75;entryY=1;entryDx=0;entryDy=0;endArrow=none;endFill=0;exitX=0.5;exitY=0;exitDx=0;exitDy=0;" parent="1" source="O3-EXrC-sCpuzH3_KJcA-6" target="O3-EXrC-sCpuzH3_KJcA-1" edge="1">
          <mxGeometry relative="1" as="geometry" />
        </mxCell>
        <mxCell id="O3-EXrC-sCpuzH3_KJcA-6" value="&lt;i&gt;&lt;font face=&quot;Garamond&quot;&gt;W&lt;sub&gt;n&lt;/sub&gt;&lt;/font&gt;&lt;/i&gt;" style="rounded=0;whiteSpace=wrap;html=1;strokeWidth=1.3;" parent="1" vertex="1">
          <mxGeometry x="220" y="210" width="50" height="50" as="geometry" />
        </mxCell>
        <mxCell id="O3-EXrC-sCpuzH3_KJcA-10" style="rounded=0;orthogonalLoop=1;jettySize=auto;html=1;entryX=0.5;entryY=0;entryDx=0;entryDy=0;startArrow=none;startFill=0;endArrow=none;endFill=0;" parent="1" source="O3-EXrC-sCpuzH3_KJcA-7" target="O3-EXrC-sCpuzH3_KJcA-3" edge="1">
          <mxGeometry relative="1" as="geometry" />
        </mxCell>
        <mxCell id="O3-EXrC-sCpuzH3_KJcA-13" style="rounded=0;orthogonalLoop=1;jettySize=auto;html=1;entryX=0.5;entryY=1;entryDx=0;entryDy=0;endArrow=none;endFill=0;" parent="1" source="O3-EXrC-sCpuzH3_KJcA-15" target="O3-EXrC-sCpuzH3_KJcA-1" edge="1">
          <mxGeometry relative="1" as="geometry" />
        </mxCell>
        <mxCell id="O3-EXrC-sCpuzH3_KJcA-7" value="&lt;i&gt;&lt;font face=&quot;Garamond&quot;&gt;W&lt;sub&gt;2&lt;/sub&gt;&lt;/font&gt;&lt;/i&gt;" style="rounded=0;whiteSpace=wrap;html=1;strokeWidth=1.3;" parent="1" vertex="1">
          <mxGeometry x="155" y="210" width="50" height="50" as="geometry" />
        </mxCell>
        <mxCell id="O3-EXrC-sCpuzH3_KJcA-8" value="Docker API" style="rounded=0;whiteSpace=wrap;html=1;strokeColor=default;fillColor=default;fontFamily=Garamond;dashed=1;strokeWidth=1.3;" parent="1" vertex="1">
          <mxGeometry x="90" y="275" width="180" height="20" as="geometry" />
        </mxCell>
        <mxCell id="O3-EXrC-sCpuzH3_KJcA-16" value="" style="rounded=0;orthogonalLoop=1;jettySize=auto;html=1;entryX=0.5;entryY=1;entryDx=0;entryDy=0;endArrow=none;endFill=0;" parent="1" source="O3-EXrC-sCpuzH3_KJcA-7" target="O3-EXrC-sCpuzH3_KJcA-15" edge="1">
          <mxGeometry relative="1" as="geometry">
            <mxPoint x="180" y="210" as="sourcePoint" />
            <mxPoint x="180" y="170" as="targetPoint" />
          </mxGeometry>
        </mxCell>
        <mxCell id="O3-EXrC-sCpuzH3_KJcA-15" value="DNS" style="rounded=0;whiteSpace=wrap;html=1;strokeColor=default;fillColor=default;fontFamily=Garamond;dashed=1;strokeWidth=1.3;" parent="1" vertex="1">
          <mxGeometry x="90" y="175" width="180" height="20" as="geometry" />
        </mxCell>
        <mxCell id="O3-EXrC-sCpuzH3_KJcA-18" value="" style="endArrow=none;startArrow=none;html=1;rounded=0;entryX=0;entryY=0.5;entryDx=0;entryDy=0;exitX=0;exitY=0.5;exitDx=0;exitDy=0;strokeWidth=3;startFill=0;endFill=0;" parent="1" source="O3-EXrC-sCpuzH3_KJcA-3" target="O3-EXrC-sCpuzH3_KJcA-1" edge="1">
          <mxGeometry width="50" height="50" relative="1" as="geometry">
            <mxPoint x="30" y="240" as="sourcePoint" />
            <mxPoint x="80" y="190" as="targetPoint" />
            <Array as="points">
              <mxPoint x="70" y="360" />
              <mxPoint x="70" y="105" />
            </Array>
          </mxGeometry>
        </mxCell>
        <mxCell id="O3-EXrC-sCpuzH3_KJcA-27" value="" style="endArrow=block;html=1;rounded=0;entryX=0.25;entryY=0;entryDx=0;entryDy=0;endFill=1;" parent="1" target="O3-EXrC-sCpuzH3_KJcA-1" edge="1">
          <mxGeometry width="50" height="50" relative="1" as="geometry">
            <mxPoint x="135" y="10" as="sourcePoint" />
            <mxPoint x="160" as="targetPoint" />
          </mxGeometry>
        </mxCell>
        <mxCell id="O3-EXrC-sCpuzH3_KJcA-28" value="Client" style="text;html=1;align=center;verticalAlign=middle;whiteSpace=wrap;rounded=0;rotation=0;fontFamily=Garamond;" parent="1" vertex="1">
          <mxGeometry x="53" y="12" width="120" height="30" as="geometry" />
        </mxCell>
        <mxCell id="O3-EXrC-sCpuzH3_KJcA-29" value="Queue (\(Q\))&amp;nbsp;&lt;span style=&quot;&quot;&gt;Websocket&amp;nbsp;&lt;/span&gt;" style="text;html=1;align=center;verticalAlign=middle;whiteSpace=wrap;rounded=0;rotation=-90;fontFamily=Garamond;" parent="1" vertex="1">
          <mxGeometry x="-30" y="217" width="180" height="30" as="geometry" />
        </mxCell>
        <mxCell id="7YsaYaqCTOlFs23PdoMd-8" value="" style="group" parent="1" vertex="1" connectable="0">
          <mxGeometry x="102" y="91" width="30" height="50" as="geometry" />
        </mxCell>
        <mxCell id="7YsaYaqCTOlFs23PdoMd-4" value="" style="rounded=0;whiteSpace=wrap;html=1;" parent="7YsaYaqCTOlFs23PdoMd-8" vertex="1">
          <mxGeometry y="18.75" width="7.5" height="31.25" as="geometry" />
        </mxCell>
        <mxCell id="7YsaYaqCTOlFs23PdoMd-5" value="" style="rounded=0;whiteSpace=wrap;html=1;" parent="7YsaYaqCTOlFs23PdoMd-8" vertex="1">
          <mxGeometry x="7.5" width="7.5" height="50" as="geometry" />
        </mxCell>
        <mxCell id="7YsaYaqCTOlFs23PdoMd-6" value="" style="rounded=0;whiteSpace=wrap;html=1;" parent="7YsaYaqCTOlFs23PdoMd-8" vertex="1">
          <mxGeometry x="15" y="37.5" width="7.5" height="12.5" as="geometry" />
        </mxCell>
        <mxCell id="7YsaYaqCTOlFs23PdoMd-7" value="" style="rounded=0;whiteSpace=wrap;html=1;" parent="7YsaYaqCTOlFs23PdoMd-8" vertex="1">
          <mxGeometry x="22.5" y="43.75" width="7.5" height="6.25" as="geometry" />
        </mxCell>
        <mxCell id="7YsaYaqCTOlFs23PdoMd-9" value="" style="shape=curlyBracket;whiteSpace=wrap;html=1;rounded=1;flipH=1;labelPosition=right;verticalLabelPosition=middle;align=left;verticalAlign=middle;" parent="1" vertex="1">
          <mxGeometry x="135" y="92" width="20" height="50" as="geometry" />
        </mxCell>
        <mxCell id="7YsaYaqCTOlFs23PdoMd-10" value="&lt;div&gt;Distribute requests based on&amp;nbsp;&amp;nbsp;&lt;span style=&quot;background-color: initial;&quot;&gt;\(W_n\) derived from worker scores&amp;nbsp;&lt;/span&gt;\(s_i\)&lt;span style=&quot;background-color: initial;&quot;&gt;.&amp;nbsp;&lt;/span&gt;&lt;/div&gt;&lt;div&gt;&lt;span style=&quot;background-color: initial;&quot;&gt;Update weights via WebSocket.&lt;/span&gt;&lt;/div&gt;" style="text;align=left;verticalAlign=middle;rounded=0;fontFamily=Georgia;whiteSpace=wrap;html=1;" parent="1" vertex="1">
          <mxGeometry x="157" y="59" width="110" height="90" as="geometry" />
        </mxCell>
        <mxCell id="7YsaYaqCTOlFs23PdoMd-12" value="&lt;div&gt;&lt;span style=&quot;background-color: initial;&quot;&gt;Monitor Workers&amp;nbsp;&lt;/span&gt;\(W_n\),&amp;nbsp;&lt;br&gt;&lt;/div&gt;&lt;div&gt;&lt;span style=&quot;background-color: initial;&quot;&gt;Calculate scores&amp;nbsp;&lt;/span&gt;\(s_i\) and m&lt;span style=&quot;background-color: initial;&quot;&gt;anages scaling.&amp;nbsp;&lt;/span&gt;&lt;span style=&quot;background-color: initial;&quot;&gt;Update Queue \((Q_i, s_i)\) via Websocket.&lt;/span&gt;&lt;/div&gt;" style="text;align=left;verticalAlign=middle;rounded=0;fontFamily=Georgia;whiteSpace=wrap;html=1;" parent="1" vertex="1">
          <mxGeometry x="100" y="321" width="163" height="90" as="geometry" />
        </mxCell>
        <mxCell id="7YsaYaqCTOlFs23PdoMd-19" value="" style="endArrow=block;html=1;rounded=0;exitX=0.25;exitY=1;exitDx=0;exitDy=0;startArrow=block;startFill=1;endFill=1;" parent="1" edge="1">
          <mxGeometry width="50" height="50" relative="1" as="geometry">
            <mxPoint x="145.9999999999999" y="409.9999999999999" as="sourcePoint" />
            <mxPoint x="146" y="450" as="targetPoint" />
            <Array as="points">
              <mxPoint x="146" y="430" />
            </Array>
          </mxGeometry>
        </mxCell>
        <mxCell id="7YsaYaqCTOlFs23PdoMd-20" value="" style="endArrow=block;html=1;rounded=0;exitX=0.75;exitY=1;exitDx=0;exitDy=0;endFill=1;" parent="1" edge="1">
          <mxGeometry width="50" height="50" relative="1" as="geometry">
            <mxPoint x="214" y="410" as="sourcePoint" />
            <mxPoint x="214" y="450" as="targetPoint" />
          </mxGeometry>
        </mxCell>
        <mxCell id="7YsaYaqCTOlFs23PdoMd-21" value="Dashboard" style="text;html=1;align=center;verticalAlign=middle;whiteSpace=wrap;rounded=0;rotation=0;fontFamily=Garamond;" parent="1" vertex="1">
          <mxGeometry x="185" y="413" width="120" height="30" as="geometry" />
        </mxCell>
        <mxCell id="7YsaYaqCTOlFs23PdoMd-22" value="Redis" style="text;html=1;align=center;verticalAlign=middle;whiteSpace=wrap;rounded=0;rotation=0;fontFamily=Garamond;" parent="1" vertex="1">
          <mxGeometry x="63" y="414" width="120" height="30" as="geometry" />
        </mxCell>
      </root>
    </mxGraphModel>
  </diagram>
</mxfile>
